<svg width="140" height="67" viewBox="0 0 140 67" fill="none" xmlns="http://www.w3.org/2000/svg">
<path d="M28 34.5333H106.4L105.467 47.6L104.533 58.8L68.1333 61.6L34.5333 58.8L28.9333 47.6L28 34.5333Z" fill="#FF0000"/>
<path d="M66.2666 0C87.7332 0.933332 106.4 16.6171 106.4 38.2666C106.4 51.3333 66.2666 51.333 66.2666 51.333C66.2089 51.333 28 51.3234 28 38.2666C28 16.6171 45.7333 0.933363 66.2666 0Z" fill="#F8C724"/>
<path d="M105.645 47.2145C126.212 48.6223 140 51.2098 140 54.1706C139.999 58.6344 108.659 66.2663 70 66.2663C31.3409 66.2663 0.00132374 58.6344 0 54.1706C0 51.4745 11.4337 49.0891 29.0078 47.6208C32.9873 55.0916 48.5867 60.6667 67.2246 60.6667C86.1987 60.6666 102.023 54.8886 105.645 47.2145Z" fill="#F8C724"/>
</svg>
